<mxfile host="app.diagrams.net" modified="2023-04-18T20:03:53.552Z" agent="Mozilla/5.0 (Windows NT 10.0; Win64; x64) AppleWebKit/537.36 (KHTML, like Gecko) Chrome/112.0.0.0 Safari/537.36" etag="hmJy-_4awKWccSsjB1BU" version="21.1.9" type="github">
  <diagram id="C5RBs43oDa-KdzZeNtuy" name="Page-1">
    <mxGraphModel dx="4084" dy="2492" grid="1" gridSize="10" guides="1" tooltips="1" connect="1" arrows="1" fold="1" page="1" pageScale="1" pageWidth="1169" pageHeight="1654" math="0" shadow="0">
      <root>
        <mxCell id="WIyWlLk6GJQsqaUBKTNV-0" />
        <mxCell id="WIyWlLk6GJQsqaUBKTNV-1" parent="WIyWlLk6GJQsqaUBKTNV-0" />
        <mxCell id="l4MeUPe-E6fuii-WkGhB-19" style="edgeStyle=none;curved=1;rounded=0;orthogonalLoop=1;jettySize=auto;html=1;exitX=0.5;exitY=1;exitDx=0;exitDy=0;entryX=0.5;entryY=0;entryDx=0;entryDy=0;fontSize=12;startSize=8;endSize=8;labelBackgroundColor=none;fontColor=default;" edge="1" parent="WIyWlLk6GJQsqaUBKTNV-1" target="l4MeUPe-E6fuii-WkGhB-2">
          <mxGeometry relative="1" as="geometry">
            <mxPoint x="392" y="272" as="sourcePoint" />
          </mxGeometry>
        </mxCell>
        <mxCell id="l4MeUPe-E6fuii-WkGhB-0" value="inicio" style="rounded=1;whiteSpace=wrap;html=1;fontSize=10;arcSize=50;labelBackgroundColor=none;" vertex="1" parent="WIyWlLk6GJQsqaUBKTNV-1">
          <mxGeometry x="324.5" y="232" width="130" height="40" as="geometry" />
        </mxCell>
        <mxCell id="l4MeUPe-E6fuii-WkGhB-21" style="edgeStyle=none;curved=1;rounded=0;orthogonalLoop=1;jettySize=auto;html=1;exitX=0.5;exitY=1;exitDx=0;exitDy=0;fontSize=12;startSize=8;endSize=8;labelBackgroundColor=none;fontColor=default;" edge="1" parent="WIyWlLk6GJQsqaUBKTNV-1" source="l4MeUPe-E6fuii-WkGhB-1">
          <mxGeometry relative="1" as="geometry">
            <mxPoint x="391.8571428571429" y="462" as="targetPoint" />
          </mxGeometry>
        </mxCell>
        <mxCell id="l4MeUPe-E6fuii-WkGhB-1" value="encerrar = &#39;n&#39;" style="rounded=1;whiteSpace=wrap;html=1;fontSize=10;labelBackgroundColor=none;" vertex="1" parent="WIyWlLk6GJQsqaUBKTNV-1">
          <mxGeometry x="327" y="402" width="130" height="40" as="geometry" />
        </mxCell>
        <mxCell id="l4MeUPe-E6fuii-WkGhB-20" style="edgeStyle=none;curved=1;rounded=0;orthogonalLoop=1;jettySize=auto;html=1;exitX=1;exitY=0.5;exitDx=0;exitDy=0;fontSize=12;startSize=8;endSize=8;labelBackgroundColor=none;fontColor=default;" edge="1" parent="WIyWlLk6GJQsqaUBKTNV-1" source="l4MeUPe-E6fuii-WkGhB-2">
          <mxGeometry relative="1" as="geometry">
            <mxPoint x="511.9999999999999" y="331.7142857142858" as="targetPoint" />
          </mxGeometry>
        </mxCell>
        <mxCell id="l4MeUPe-E6fuii-WkGhB-2" value="saldo" style="html=1;strokeWidth=2;shape=manualInput;whiteSpace=wrap;rounded=1;size=26;arcSize=11;fontSize=10;labelBackgroundColor=none;" vertex="1" parent="WIyWlLk6GJQsqaUBKTNV-1">
          <mxGeometry x="327" y="302" width="130" height="60" as="geometry" />
        </mxCell>
        <mxCell id="l4MeUPe-E6fuii-WkGhB-53" style="edgeStyle=none;rounded=0;orthogonalLoop=1;jettySize=auto;html=1;exitX=0.5;exitY=1;exitDx=0;exitDy=0;exitPerimeter=0;fontSize=12;startSize=8;endSize=8;" edge="1" parent="WIyWlLk6GJQsqaUBKTNV-1" source="l4MeUPe-E6fuii-WkGhB-3">
          <mxGeometry relative="1" as="geometry">
            <mxPoint x="469.5" y="422" as="targetPoint" />
            <Array as="points">
              <mxPoint x="587.5" y="422" />
            </Array>
          </mxGeometry>
        </mxCell>
        <mxCell id="l4MeUPe-E6fuii-WkGhB-3" value="&quot;saldo inicial&quot; + saldo" style="strokeWidth=2;html=1;shape=mxgraph.flowchart.display;whiteSpace=wrap;fontSize=10;labelBackgroundColor=none;" vertex="1" parent="WIyWlLk6GJQsqaUBKTNV-1">
          <mxGeometry x="517" y="302" width="140" height="60" as="geometry" />
        </mxCell>
        <mxCell id="l4MeUPe-E6fuii-WkGhB-22" style="edgeStyle=none;curved=1;rounded=0;orthogonalLoop=1;jettySize=auto;html=1;exitX=0.5;exitY=1;exitDx=0;exitDy=0;exitPerimeter=0;entryX=0.5;entryY=0;entryDx=0;entryDy=0;fontSize=12;startSize=8;endSize=8;labelBackgroundColor=none;fontColor=default;" edge="1" parent="WIyWlLk6GJQsqaUBKTNV-1" source="l4MeUPe-E6fuii-WkGhB-4" target="l4MeUPe-E6fuii-WkGhB-5">
          <mxGeometry relative="1" as="geometry" />
        </mxCell>
        <mxCell id="l4MeUPe-E6fuii-WkGhB-54" style="edgeStyle=none;curved=1;rounded=0;orthogonalLoop=1;jettySize=auto;html=1;exitX=1;exitY=0.5;exitDx=0;exitDy=0;exitPerimeter=0;fontSize=12;startSize=8;endSize=8;" edge="1" parent="WIyWlLk6GJQsqaUBKTNV-1" source="l4MeUPe-E6fuii-WkGhB-4">
          <mxGeometry relative="1" as="geometry">
            <mxPoint x="880" y="1290" as="targetPoint" />
            <Array as="points">
              <mxPoint x="820" y="530" />
            </Array>
          </mxGeometry>
        </mxCell>
        <mxCell id="l4MeUPe-E6fuii-WkGhB-4" value="encerrar = &#39;n&#39;" style="strokeWidth=2;html=1;shape=mxgraph.flowchart.decision;whiteSpace=wrap;fontSize=10;labelBackgroundColor=none;" vertex="1" parent="WIyWlLk6GJQsqaUBKTNV-1">
          <mxGeometry x="327" y="472" width="130" height="100" as="geometry" />
        </mxCell>
        <mxCell id="l4MeUPe-E6fuii-WkGhB-23" style="edgeStyle=none;curved=1;rounded=0;orthogonalLoop=1;jettySize=auto;html=1;exitX=0.5;exitY=1;exitDx=0;exitDy=0;entryX=0.5;entryY=0;entryDx=0;entryDy=0;fontSize=12;startSize=8;endSize=8;labelBackgroundColor=none;fontColor=default;" edge="1" parent="WIyWlLk6GJQsqaUBKTNV-1" source="l4MeUPe-E6fuii-WkGhB-5" target="l4MeUPe-E6fuii-WkGhB-6">
          <mxGeometry relative="1" as="geometry" />
        </mxCell>
        <mxCell id="l4MeUPe-E6fuii-WkGhB-5" value="tipo de entrada" style="html=1;strokeWidth=2;shape=manualInput;whiteSpace=wrap;rounded=1;size=26;arcSize=11;fontSize=10;labelBackgroundColor=none;" vertex="1" parent="WIyWlLk6GJQsqaUBKTNV-1">
          <mxGeometry x="327" y="592" width="130" height="60" as="geometry" />
        </mxCell>
        <mxCell id="l4MeUPe-E6fuii-WkGhB-24" style="edgeStyle=none;curved=1;rounded=0;orthogonalLoop=1;jettySize=auto;html=1;exitX=0.5;exitY=1;exitDx=0;exitDy=0;fontSize=12;startSize=8;endSize=8;entryX=0.5;entryY=0;entryDx=0;entryDy=0;entryPerimeter=0;labelBackgroundColor=none;fontColor=default;" edge="1" parent="WIyWlLk6GJQsqaUBKTNV-1" source="l4MeUPe-E6fuii-WkGhB-6" target="l4MeUPe-E6fuii-WkGhB-7">
          <mxGeometry relative="1" as="geometry">
            <mxPoint x="394.5" y="752" as="targetPoint" />
          </mxGeometry>
        </mxCell>
        <mxCell id="l4MeUPe-E6fuii-WkGhB-6" value="quantidade" style="html=1;strokeWidth=2;shape=manualInput;whiteSpace=wrap;rounded=1;size=26;arcSize=11;fontSize=10;labelBackgroundColor=none;" vertex="1" parent="WIyWlLk6GJQsqaUBKTNV-1">
          <mxGeometry x="327" y="677" width="130" height="60" as="geometry" />
        </mxCell>
        <mxCell id="l4MeUPe-E6fuii-WkGhB-25" style="edgeStyle=none;curved=1;rounded=0;orthogonalLoop=1;jettySize=auto;html=1;exitX=0.5;exitY=1;exitDx=0;exitDy=0;exitPerimeter=0;entryX=0.5;entryY=0;entryDx=0;entryDy=0;entryPerimeter=0;fontSize=12;startSize=8;endSize=8;labelBackgroundColor=none;fontColor=default;" edge="1" parent="WIyWlLk6GJQsqaUBKTNV-1" source="l4MeUPe-E6fuii-WkGhB-7" target="l4MeUPe-E6fuii-WkGhB-10">
          <mxGeometry relative="1" as="geometry" />
        </mxCell>
        <mxCell id="l4MeUPe-E6fuii-WkGhB-27" style="edgeStyle=none;curved=1;rounded=0;orthogonalLoop=1;jettySize=auto;html=1;exitX=1;exitY=0.5;exitDx=0;exitDy=0;exitPerimeter=0;fontSize=12;startSize=8;endSize=8;labelBackgroundColor=none;fontColor=default;" edge="1" parent="WIyWlLk6GJQsqaUBKTNV-1" source="l4MeUPe-E6fuii-WkGhB-7">
          <mxGeometry relative="1" as="geometry">
            <mxPoint x="509.5" y="812.3333333333333" as="targetPoint" />
          </mxGeometry>
        </mxCell>
        <mxCell id="l4MeUPe-E6fuii-WkGhB-7" value="&lt;font style=&quot;font-size: 10px;&quot;&gt;tipo de entrada = 1&lt;/font&gt;" style="strokeWidth=2;html=1;shape=mxgraph.flowchart.decision;whiteSpace=wrap;fontSize=10;labelBackgroundColor=none;" vertex="1" parent="WIyWlLk6GJQsqaUBKTNV-1">
          <mxGeometry x="327" y="762" width="130" height="100" as="geometry" />
        </mxCell>
        <mxCell id="l4MeUPe-E6fuii-WkGhB-28" style="edgeStyle=none;curved=1;rounded=0;orthogonalLoop=1;jettySize=auto;html=1;fontSize=12;startSize=8;endSize=8;labelBackgroundColor=none;fontColor=default;" edge="1" parent="WIyWlLk6GJQsqaUBKTNV-1" source="l4MeUPe-E6fuii-WkGhB-8">
          <mxGeometry relative="1" as="geometry">
            <mxPoint x="699.5" y="812" as="targetPoint" />
          </mxGeometry>
        </mxCell>
        <mxCell id="l4MeUPe-E6fuii-WkGhB-8" value="saldo = saldo + quantidade" style="rounded=1;whiteSpace=wrap;html=1;fontSize=10;labelBackgroundColor=none;" vertex="1" parent="WIyWlLk6GJQsqaUBKTNV-1">
          <mxGeometry x="522" y="782" width="130" height="60" as="geometry" />
        </mxCell>
        <mxCell id="l4MeUPe-E6fuii-WkGhB-37" style="edgeStyle=none;rounded=0;orthogonalLoop=1;jettySize=auto;html=1;exitX=0.5;exitY=1;exitDx=0;exitDy=0;exitPerimeter=0;fontSize=12;startSize=8;endSize=8;" edge="1" parent="WIyWlLk6GJQsqaUBKTNV-1" source="l4MeUPe-E6fuii-WkGhB-9">
          <mxGeometry relative="1" as="geometry">
            <mxPoint x="449.5" y="872" as="targetPoint" />
            <Array as="points">
              <mxPoint x="777.5" y="872" />
            </Array>
          </mxGeometry>
        </mxCell>
        <mxCell id="l4MeUPe-E6fuii-WkGhB-9" value="&quot;Entrada &quot;+ quantidade" style="strokeWidth=2;html=1;shape=mxgraph.flowchart.display;whiteSpace=wrap;fontSize=10;labelBackgroundColor=none;" vertex="1" parent="WIyWlLk6GJQsqaUBKTNV-1">
          <mxGeometry x="707" y="782" width="140" height="60" as="geometry" />
        </mxCell>
        <mxCell id="l4MeUPe-E6fuii-WkGhB-38" style="edgeStyle=none;curved=1;rounded=0;orthogonalLoop=1;jettySize=auto;html=1;exitX=1;exitY=0.5;exitDx=0;exitDy=0;exitPerimeter=0;fontSize=12;startSize=8;endSize=8;" edge="1" parent="WIyWlLk6GJQsqaUBKTNV-1" source="l4MeUPe-E6fuii-WkGhB-10">
          <mxGeometry relative="1" as="geometry">
            <mxPoint x="499.5" y="932.3333333333333" as="targetPoint" />
          </mxGeometry>
        </mxCell>
        <mxCell id="l4MeUPe-E6fuii-WkGhB-42" style="edgeStyle=none;curved=1;rounded=0;orthogonalLoop=1;jettySize=auto;html=1;exitX=0.5;exitY=1;exitDx=0;exitDy=0;exitPerimeter=0;fontSize=12;startSize=8;endSize=8;" edge="1" parent="WIyWlLk6GJQsqaUBKTNV-1" source="l4MeUPe-E6fuii-WkGhB-10">
          <mxGeometry relative="1" as="geometry">
            <mxPoint x="391.5" y="1112" as="targetPoint" />
          </mxGeometry>
        </mxCell>
        <mxCell id="l4MeUPe-E6fuii-WkGhB-10" value="&lt;font style=&quot;font-size: 10px;&quot;&gt;tipo de entrada = 2&lt;/font&gt;" style="strokeWidth=2;html=1;shape=mxgraph.flowchart.decision;whiteSpace=wrap;fontSize=10;labelBackgroundColor=none;" vertex="1" parent="WIyWlLk6GJQsqaUBKTNV-1">
          <mxGeometry x="327" y="882" width="130" height="100" as="geometry" />
        </mxCell>
        <mxCell id="l4MeUPe-E6fuii-WkGhB-39" style="edgeStyle=none;curved=1;rounded=0;orthogonalLoop=1;jettySize=auto;html=1;exitX=1;exitY=0.5;exitDx=0;exitDy=0;exitPerimeter=0;fontSize=12;startSize=8;endSize=8;" edge="1" parent="WIyWlLk6GJQsqaUBKTNV-1" source="l4MeUPe-E6fuii-WkGhB-11">
          <mxGeometry relative="1" as="geometry">
            <mxPoint x="699.5" y="932.3333333333333" as="targetPoint" />
          </mxGeometry>
        </mxCell>
        <mxCell id="l4MeUPe-E6fuii-WkGhB-40" style="edgeStyle=none;curved=1;rounded=0;orthogonalLoop=1;jettySize=auto;html=1;exitX=0.5;exitY=1;exitDx=0;exitDy=0;exitPerimeter=0;entryX=0.5;entryY=0;entryDx=0;entryDy=0;entryPerimeter=0;fontSize=12;startSize=8;endSize=8;" edge="1" parent="WIyWlLk6GJQsqaUBKTNV-1" source="l4MeUPe-E6fuii-WkGhB-11" target="l4MeUPe-E6fuii-WkGhB-13">
          <mxGeometry relative="1" as="geometry" />
        </mxCell>
        <mxCell id="l4MeUPe-E6fuii-WkGhB-11" value="&lt;font style=&quot;font-size: 10px;&quot;&gt;saldo &amp;gt;= quantidade&lt;/font&gt;" style="strokeWidth=2;html=1;shape=mxgraph.flowchart.decision;whiteSpace=wrap;fontSize=10;labelBackgroundColor=none;" vertex="1" parent="WIyWlLk6GJQsqaUBKTNV-1">
          <mxGeometry x="522" y="882" width="130" height="100" as="geometry" />
        </mxCell>
        <mxCell id="l4MeUPe-E6fuii-WkGhB-41" style="edgeStyle=none;curved=1;rounded=0;orthogonalLoop=1;jettySize=auto;html=1;exitX=0.5;exitY=1;exitDx=0;exitDy=0;fontSize=12;startSize=8;endSize=8;" edge="1" parent="WIyWlLk6GJQsqaUBKTNV-1" source="l4MeUPe-E6fuii-WkGhB-12">
          <mxGeometry relative="1" as="geometry">
            <mxPoint x="776.8333333333333" y="992" as="targetPoint" />
          </mxGeometry>
        </mxCell>
        <mxCell id="l4MeUPe-E6fuii-WkGhB-12" value="saldo = saldo - quantidade" style="rounded=1;whiteSpace=wrap;html=1;fontSize=10;labelBackgroundColor=none;" vertex="1" parent="WIyWlLk6GJQsqaUBKTNV-1">
          <mxGeometry x="712" y="902" width="130" height="60" as="geometry" />
        </mxCell>
        <mxCell id="l4MeUPe-E6fuii-WkGhB-47" style="edgeStyle=none;rounded=0;orthogonalLoop=1;jettySize=auto;html=1;exitX=0.5;exitY=1;exitDx=0;exitDy=0;exitPerimeter=0;fontSize=12;startSize=8;endSize=8;" edge="1" parent="WIyWlLk6GJQsqaUBKTNV-1" source="l4MeUPe-E6fuii-WkGhB-13">
          <mxGeometry relative="1" as="geometry">
            <mxPoint x="469.5" y="1102" as="targetPoint" />
            <Array as="points">
              <mxPoint x="586.5" y="1102" />
            </Array>
          </mxGeometry>
        </mxCell>
        <mxCell id="l4MeUPe-E6fuii-WkGhB-13" value="&quot;Saldo insuficiente.&quot;" style="strokeWidth=2;html=1;shape=mxgraph.flowchart.display;whiteSpace=wrap;fontSize=10;labelBackgroundColor=none;" vertex="1" parent="WIyWlLk6GJQsqaUBKTNV-1">
          <mxGeometry x="517" y="1002" width="140" height="60" as="geometry" />
        </mxCell>
        <mxCell id="l4MeUPe-E6fuii-WkGhB-48" style="edgeStyle=none;rounded=0;orthogonalLoop=1;jettySize=auto;html=1;exitX=0.5;exitY=1;exitDx=0;exitDy=0;exitPerimeter=0;fontSize=12;startSize=8;endSize=8;" edge="1" parent="WIyWlLk6GJQsqaUBKTNV-1" source="l4MeUPe-E6fuii-WkGhB-14">
          <mxGeometry relative="1" as="geometry">
            <mxPoint x="459.5" y="1112" as="targetPoint" />
            <Array as="points">
              <mxPoint x="772.5" y="1112" />
            </Array>
          </mxGeometry>
        </mxCell>
        <mxCell id="l4MeUPe-E6fuii-WkGhB-14" value="&quot;Saida. &quot; + quantidade" style="strokeWidth=2;html=1;shape=mxgraph.flowchart.display;whiteSpace=wrap;fontSize=10;labelBackgroundColor=none;" vertex="1" parent="WIyWlLk6GJQsqaUBKTNV-1">
          <mxGeometry x="702" y="1002" width="140" height="60" as="geometry" />
        </mxCell>
        <mxCell id="l4MeUPe-E6fuii-WkGhB-49" style="edgeStyle=none;curved=1;rounded=0;orthogonalLoop=1;jettySize=auto;html=1;exitX=0.5;exitY=1;exitDx=0;exitDy=0;exitPerimeter=0;entryX=0.5;entryY=0;entryDx=0;entryDy=0;fontSize=12;startSize=8;endSize=8;" edge="1" parent="WIyWlLk6GJQsqaUBKTNV-1" source="l4MeUPe-E6fuii-WkGhB-15" target="l4MeUPe-E6fuii-WkGhB-16">
          <mxGeometry relative="1" as="geometry" />
        </mxCell>
        <mxCell id="l4MeUPe-E6fuii-WkGhB-15" value="saldo" style="strokeWidth=2;html=1;shape=mxgraph.flowchart.display;whiteSpace=wrap;fontSize=10;labelBackgroundColor=none;" vertex="1" parent="WIyWlLk6GJQsqaUBKTNV-1">
          <mxGeometry x="322" y="1122" width="140" height="60" as="geometry" />
        </mxCell>
        <mxCell id="l4MeUPe-E6fuii-WkGhB-52" style="edgeStyle=none;curved=1;rounded=0;orthogonalLoop=1;jettySize=auto;html=1;exitX=0.5;exitY=1;exitDx=0;exitDy=0;fontSize=12;startSize=8;endSize=8;" edge="1" parent="WIyWlLk6GJQsqaUBKTNV-1" source="l4MeUPe-E6fuii-WkGhB-16">
          <mxGeometry relative="1" as="geometry">
            <mxPoint x="392.07142857142867" y="1281.9999999999998" as="targetPoint" />
          </mxGeometry>
        </mxCell>
        <mxCell id="l4MeUPe-E6fuii-WkGhB-16" value="&lt;br&gt;encerrar ? (sim)" style="html=1;strokeWidth=2;shape=manualInput;whiteSpace=wrap;rounded=1;size=26;arcSize=11;fontSize=10;labelBackgroundColor=none;" vertex="1" parent="WIyWlLk6GJQsqaUBKTNV-1">
          <mxGeometry x="327" y="1202" width="130" height="60" as="geometry" />
        </mxCell>
        <mxCell id="l4MeUPe-E6fuii-WkGhB-51" style="edgeStyle=none;curved=1;rounded=0;orthogonalLoop=1;jettySize=auto;html=1;exitX=0.5;exitY=1;exitDx=0;exitDy=0;exitPerimeter=0;fontSize=12;startSize=8;endSize=8;" edge="1" parent="WIyWlLk6GJQsqaUBKTNV-1" source="l4MeUPe-E6fuii-WkGhB-17">
          <mxGeometry relative="1" as="geometry">
            <mxPoint x="392.07142857142867" y="1371.9999999999998" as="targetPoint" />
          </mxGeometry>
        </mxCell>
        <mxCell id="l4MeUPe-E6fuii-WkGhB-17" value="&quot;Sistema encerrado&quot;" style="strokeWidth=2;html=1;shape=mxgraph.flowchart.display;whiteSpace=wrap;fontSize=10;labelBackgroundColor=none;" vertex="1" parent="WIyWlLk6GJQsqaUBKTNV-1">
          <mxGeometry x="322" y="1292" width="140" height="60" as="geometry" />
        </mxCell>
        <mxCell id="l4MeUPe-E6fuii-WkGhB-18" value="Fim" style="rounded=1;whiteSpace=wrap;html=1;fontSize=10;arcSize=50;labelBackgroundColor=none;" vertex="1" parent="WIyWlLk6GJQsqaUBKTNV-1">
          <mxGeometry x="327" y="1382" width="130" height="40" as="geometry" />
        </mxCell>
      </root>
    </mxGraphModel>
  </diagram>
</mxfile>
